<mxfile host="" modified="2020-05-24T15:21:41.060Z" agent="5.0 (X11; Linux x86_64) AppleWebKit/537.36 (KHTML, like Gecko) Code/1.45.0 Chrome/78.0.3904.130 Electron/7.2.4 Safari/537.36" version="13.1.3" etag="lrwgP8mNOWNbAz78NI_h" pages="2">
            <diagram id="diagramid" name="Diagram">
              <mxGraphModel><root><mxCell id="0"/><mxCell id="1" parent="0"/><mxCell id="2" value="VPC" style="outlineConnect=0;fontColor=#B3B3B3;gradientColor=#945DF2;gradientDirection=north;fillColor=#5A30B5;strokeColor=#ffffff;dashed=0;verticalLabelPosition=bottom;verticalAlign=top;align=center;html=1;fontSize=12;fontStyle=0;aspect=fixed;shape=mxgraph.aws4.resourceIcon;resIcon=mxgraph.aws4.vpc;" vertex="1" parent="1"><mxGeometry x="750" y="1500" width="50" height="50" as="geometry"/></mxCell><mxCell id="3" value="VPCDHCPOptions" style="outlineConnect=0;fontColor=#B3B3B3;gradientColor=#F78E04;gradientDirection=north;fillColor=#D05C17;strokeColor=#ffffff;dashed=0;verticalLabelPosition=bottom;verticalAlign=top;align=center;html=1;fontSize=12;fontStyle=0;aspect=fixed;shape=mxgraph.aws4.resourceIcon;resIcon=mxgraph.aws4.ec2;" vertex="1" parent="1"><mxGeometry x="250" y="400" width="50" height="50" as="geometry"/></mxCell><mxCell id="4" value="VPCDHCPOptionsAssociation" style="outlineConnect=0;fontColor=#B3B3B3;gradientColor=#F78E04;gradientDirection=north;fillColor=#D05C17;strokeColor=#ffffff;dashed=0;verticalLabelPosition=bottom;verticalAlign=top;align=center;html=1;fontSize=12;fontStyle=0;aspect=fixed;shape=mxgraph.aws4.resourceIcon;resIcon=mxgraph.aws4.ec2;" vertex="1" parent="1"><mxGeometry width="50" height="50" as="geometry"/></mxCell><mxCell id="5" value="InternetGateway" style="outlineConnect=0;fontColor=#B3B3B3;gradientColor=#F78E04;gradientDirection=north;fillColor=#D05C17;strokeColor=#ffffff;dashed=0;verticalLabelPosition=bottom;verticalAlign=top;align=center;html=1;fontSize=12;fontStyle=0;aspect=fixed;shape=mxgraph.aws4.resourceIcon;resIcon=mxgraph.aws4.ec2;" vertex="1" parent="1"><mxGeometry x="250" y="550" width="50" height="50" as="geometry"/></mxCell><mxCell id="6" value="InternetGatewayAttachment" style="outlineConnect=0;fontColor=#B3B3B3;gradientColor=#F78E04;gradientDirection=north;fillColor=#D05C17;strokeColor=#ffffff;dashed=0;verticalLabelPosition=bottom;verticalAlign=top;align=center;html=1;fontSize=12;fontStyle=0;aspect=fixed;shape=mxgraph.aws4.resourceIcon;resIcon=mxgraph.aws4.ec2;" vertex="1" parent="1"><mxGeometry y="100" width="50" height="50" as="geometry"/></mxCell><mxCell id="7" value="PublicRouteTable" style="outlineConnect=0;fontColor=#B3B3B3;gradientColor=#945DF2;gradientDirection=north;fillColor=#5A30B5;strokeColor=#ffffff;dashed=0;verticalLabelPosition=bottom;verticalAlign=top;align=center;html=1;fontSize=12;fontStyle=0;aspect=fixed;shape=mxgraph.aws4.resourceIcon;resIcon=mxgraph.aws4.route_table;" vertex="1" parent="1"><mxGeometry x="250" y="850" width="50" height="50" as="geometry"/></mxCell><mxCell id="8" value="DefaultPublicRoute" style="outlineConnect=0;fontColor=#B3B3B3;gradientColor=#945DF2;gradientDirection=north;fillColor=#5A30B5;strokeColor=#ffffff;dashed=0;verticalLabelPosition=bottom;verticalAlign=top;align=center;html=1;fontSize=12;fontStyle=0;aspect=fixed;shape=mxgraph.aws4.resourceIcon;resIcon=mxgraph.aws4.route_table;" vertex="1" parent="1"><mxGeometry y="400" width="50" height="50" as="geometry"/></mxCell><mxCell id="9" value="PublicNetworkAcl" style="outlineConnect=0;fontColor=#B3B3B3;gradientColor=#F78E04;gradientDirection=north;fillColor=#D05C17;strokeColor=#ffffff;dashed=0;verticalLabelPosition=bottom;verticalAlign=top;align=center;html=1;fontSize=12;fontStyle=0;aspect=fixed;shape=mxgraph.aws4.resourceIcon;resIcon=mxgraph.aws4.ec2;" vertex="1" parent="1"><mxGeometry x="250" y="650" width="50" height="50" as="geometry"/></mxCell><mxCell id="10" value="InboundNACLEntryPublic" style="outlineConnect=0;fontColor=#B3B3B3;gradientColor=#F78E04;gradientDirection=north;fillColor=#D05C17;strokeColor=#ffffff;dashed=0;verticalLabelPosition=bottom;verticalAlign=top;align=center;html=1;fontSize=12;fontStyle=0;aspect=fixed;shape=mxgraph.aws4.resourceIcon;resIcon=mxgraph.aws4.ec2;" vertex="1" parent="1"><mxGeometry y="300" width="50" height="50" as="geometry"/></mxCell><mxCell id="11" value="OutboundNACLEntryPublic" style="outlineConnect=0;fontColor=#B3B3B3;gradientColor=#F78E04;gradientDirection=north;fillColor=#D05C17;strokeColor=#ffffff;dashed=0;verticalLabelPosition=bottom;verticalAlign=top;align=center;html=1;fontSize=12;fontStyle=0;aspect=fixed;shape=mxgraph.aws4.resourceIcon;resIcon=mxgraph.aws4.ec2;" vertex="1" parent="1"><mxGeometry y="200" width="50" height="50" as="geometry"/></mxCell><mxCell id="12" value="SubnetPublicA" style="outlineConnect=0;fontColor=#B3B3B3;gradientColor=#F78E04;gradientDirection=north;fillColor=#D05C17;strokeColor=#ffffff;dashed=0;verticalLabelPosition=bottom;verticalAlign=top;align=center;html=1;fontSize=12;fontStyle=0;aspect=fixed;shape=mxgraph.aws4.resourceIcon;resIcon=mxgraph.aws4.ec2;" vertex="1" parent="1"><mxGeometry x="500" y="950" width="50" height="50" as="geometry"/></mxCell><mxCell id="13" value="SubnetPublicANACLAssociation" style="outlineConnect=0;fontColor=#B3B3B3;gradientColor=#F78E04;gradientDirection=north;fillColor=#D05C17;strokeColor=#ffffff;dashed=0;verticalLabelPosition=bottom;verticalAlign=top;align=center;html=1;fontSize=12;fontStyle=0;aspect=fixed;shape=mxgraph.aws4.resourceIcon;resIcon=mxgraph.aws4.ec2;" vertex="1" parent="1"><mxGeometry y="500" width="50" height="50" as="geometry"/></mxCell><mxCell id="14" value="SubnetPublicARouteTable" style="outlineConnect=0;fontColor=#B3B3B3;gradientColor=#945DF2;gradientDirection=north;fillColor=#5A30B5;strokeColor=#ffffff;dashed=0;verticalLabelPosition=bottom;verticalAlign=top;align=center;html=1;fontSize=12;fontStyle=0;aspect=fixed;shape=mxgraph.aws4.resourceIcon;resIcon=mxgraph.aws4.route_table;" vertex="1" parent="1"><mxGeometry y="600" width="50" height="50" as="geometry"/></mxCell><mxCell id="15" value="SubnetPublicB" style="outlineConnect=0;fontColor=#B3B3B3;gradientColor=#F78E04;gradientDirection=north;fillColor=#D05C17;strokeColor=#ffffff;dashed=0;verticalLabelPosition=bottom;verticalAlign=top;align=center;html=1;fontSize=12;fontStyle=0;aspect=fixed;shape=mxgraph.aws4.resourceIcon;resIcon=mxgraph.aws4.ec2;" vertex="1" parent="1"><mxGeometry x="500" y="1100" width="50" height="50" as="geometry"/></mxCell><mxCell id="16" value="SubnetPublicBNACLAssociation" style="outlineConnect=0;fontColor=#B3B3B3;gradientColor=#F78E04;gradientDirection=north;fillColor=#D05C17;strokeColor=#ffffff;dashed=0;verticalLabelPosition=bottom;verticalAlign=top;align=center;html=1;fontSize=12;fontStyle=0;aspect=fixed;shape=mxgraph.aws4.resourceIcon;resIcon=mxgraph.aws4.ec2;" vertex="1" parent="1"><mxGeometry y="700" width="50" height="50" as="geometry"/></mxCell><mxCell id="17" value="SubnetPublicBRouteTable" style="outlineConnect=0;fontColor=#B3B3B3;gradientColor=#945DF2;gradientDirection=north;fillColor=#5A30B5;strokeColor=#ffffff;dashed=0;verticalLabelPosition=bottom;verticalAlign=top;align=center;html=1;fontSize=12;fontStyle=0;aspect=fixed;shape=mxgraph.aws4.resourceIcon;resIcon=mxgraph.aws4.route_table;" vertex="1" parent="1"><mxGeometry y="800" width="50" height="50" as="geometry"/></mxCell><mxCell id="18" value="SubnetPublicC" style="outlineConnect=0;fontColor=#B3B3B3;gradientColor=#F78E04;gradientDirection=north;fillColor=#D05C17;strokeColor=#ffffff;dashed=0;verticalLabelPosition=bottom;verticalAlign=top;align=center;html=1;fontSize=12;fontStyle=0;aspect=fixed;shape=mxgraph.aws4.resourceIcon;resIcon=mxgraph.aws4.ec2;" vertex="1" parent="1"><mxGeometry x="500" y="1400" width="50" height="50" as="geometry"/></mxCell><mxCell id="19" value="SubnetPublicCNACLAssociation" style="outlineConnect=0;fontColor=#B3B3B3;gradientColor=#F78E04;gradientDirection=north;fillColor=#D05C17;strokeColor=#ffffff;dashed=0;verticalLabelPosition=bottom;verticalAlign=top;align=center;html=1;fontSize=12;fontStyle=0;aspect=fixed;shape=mxgraph.aws4.resourceIcon;resIcon=mxgraph.aws4.ec2;" vertex="1" parent="1"><mxGeometry y="900" width="50" height="50" as="geometry"/></mxCell><mxCell id="20" value="SubnetPublicCRouteTable" style="outlineConnect=0;fontColor=#B3B3B3;gradientColor=#945DF2;gradientDirection=north;fillColor=#5A30B5;strokeColor=#ffffff;dashed=0;verticalLabelPosition=bottom;verticalAlign=top;align=center;html=1;fontSize=12;fontStyle=0;aspect=fixed;shape=mxgraph.aws4.resourceIcon;resIcon=mxgraph.aws4.route_table;" vertex="1" parent="1"><mxGeometry y="1000" width="50" height="50" as="geometry"/></mxCell><mxCell id="21" value="NatRole" style="outlineConnect=0;fontColor=#B3B3B3;gradientColor=#F54749;gradientDirection=north;fillColor=#C7131F;strokeColor=#ffffff;dashed=0;verticalLabelPosition=bottom;verticalAlign=top;align=center;html=1;fontSize=12;fontStyle=0;aspect=fixed;shape=mxgraph.aws4.resourceIcon;resIcon=mxgraph.aws4.role;" vertex="1" parent="1"><mxGeometry x="750" y="1201.5625" width="50" height="50" as="geometry"/></mxCell><mxCell id="22" value="NatInstanceProfile" style="outlineConnect=0;fontColor=#B3B3B3;gradientColor=#F54749;gradientDirection=north;fillColor=#C7131F;strokeColor=#ffffff;dashed=0;verticalLabelPosition=bottom;verticalAlign=top;align=center;html=1;fontSize=12;fontStyle=0;aspect=fixed;shape=mxgraph.aws4.resourceIcon;resIcon=mxgraph.aws4.identity_and_access_management;" vertex="1" parent="1"><mxGeometry x="500" y="1200" width="50" height="50" as="geometry"/></mxCell><mxCell id="23" value="NatGatewaySecurityGroup" style="outlineConnect=0;fontColor=#B3B3B3;gradientColor=#F78E04;gradientDirection=north;fillColor=#D05C17;strokeColor=#ffffff;dashed=0;verticalLabelPosition=bottom;verticalAlign=top;align=center;html=1;fontSize=12;fontStyle=0;aspect=fixed;shape=mxgraph.aws4.resourceIcon;resIcon=mxgraph.aws4.ec2;" vertex="1" parent="1"><mxGeometry x="500" y="1300" width="50" height="50" as="geometry"/></mxCell><mxCell id="24" value="NatGatewayInstanceA" style="outlineConnect=0;fontColor=#B3B3B3;gradientColor=#F78E04;gradientDirection=north;fillColor=#D05C17;strokeColor=#ffffff;dashed=0;verticalLabelPosition=bottom;verticalAlign=top;align=center;html=1;fontSize=12;fontStyle=0;aspect=fixed;shape=mxgraph.aws4.resourceIcon;resIcon=mxgraph.aws4.ec2;" vertex="1" parent="1"><mxGeometry x="250" y="1050" width="50" height="50" as="geometry"/></mxCell><mxCell id="25" value="PrivateARouteTable" style="outlineConnect=0;fontColor=#B3B3B3;gradientColor=#945DF2;gradientDirection=north;fillColor=#5A30B5;strokeColor=#ffffff;dashed=0;verticalLabelPosition=bottom;verticalAlign=top;align=center;html=1;fontSize=12;fontStyle=0;aspect=fixed;shape=mxgraph.aws4.resourceIcon;resIcon=mxgraph.aws4.route_table;" vertex="1" parent="1"><mxGeometry x="250" y="1450" width="50" height="50" as="geometry"/></mxCell><mxCell id="26" value="DefaultPrivateARoute" style="outlineConnect=0;fontColor=#B3B3B3;gradientColor=#945DF2;gradientDirection=north;fillColor=#5A30B5;strokeColor=#ffffff;dashed=0;verticalLabelPosition=bottom;verticalAlign=top;align=center;html=1;fontSize=12;fontStyle=0;aspect=fixed;shape=mxgraph.aws4.resourceIcon;resIcon=mxgraph.aws4.route_table;" vertex="1" parent="1"><mxGeometry y="1100" width="50" height="50" as="geometry"/></mxCell><mxCell id="27" value="NatGatewayInstanceB" style="outlineConnect=0;fontColor=#B3B3B3;gradientColor=#F78E04;gradientDirection=north;fillColor=#D05C17;strokeColor=#ffffff;dashed=0;verticalLabelPosition=bottom;verticalAlign=top;align=center;html=1;fontSize=12;fontStyle=0;aspect=fixed;shape=mxgraph.aws4.resourceIcon;resIcon=mxgraph.aws4.ec2;" vertex="1" parent="1"><mxGeometry x="250" y="1150" width="50" height="50" as="geometry"/></mxCell><mxCell id="28" value="PrivateBRouteTable" style="outlineConnect=0;fontColor=#B3B3B3;gradientColor=#945DF2;gradientDirection=north;fillColor=#5A30B5;strokeColor=#ffffff;dashed=0;verticalLabelPosition=bottom;verticalAlign=top;align=center;html=1;fontSize=12;fontStyle=0;aspect=fixed;shape=mxgraph.aws4.resourceIcon;resIcon=mxgraph.aws4.route_table;" vertex="1" parent="1"><mxGeometry x="250" y="1650" width="50" height="50" as="geometry"/></mxCell><mxCell id="29" value="DefaultPrivateBRoute" style="outlineConnect=0;fontColor=#B3B3B3;gradientColor=#945DF2;gradientDirection=north;fillColor=#5A30B5;strokeColor=#ffffff;dashed=0;verticalLabelPosition=bottom;verticalAlign=top;align=center;html=1;fontSize=12;fontStyle=0;aspect=fixed;shape=mxgraph.aws4.resourceIcon;resIcon=mxgraph.aws4.route_table;" vertex="1" parent="1"><mxGeometry y="1300" width="50" height="50" as="geometry"/></mxCell><mxCell id="30" value="NatGatewayInstanceC" style="outlineConnect=0;fontColor=#B3B3B3;gradientColor=#F78E04;gradientDirection=north;fillColor=#D05C17;strokeColor=#ffffff;dashed=0;verticalLabelPosition=bottom;verticalAlign=top;align=center;html=1;fontSize=12;fontStyle=0;aspect=fixed;shape=mxgraph.aws4.resourceIcon;resIcon=mxgraph.aws4.ec2;" vertex="1" parent="1"><mxGeometry x="250" y="1300" width="50" height="50" as="geometry"/></mxCell><mxCell id="31" value="PrivateCRouteTable" style="outlineConnect=0;fontColor=#B3B3B3;gradientColor=#945DF2;gradientDirection=north;fillColor=#5A30B5;strokeColor=#ffffff;dashed=0;verticalLabelPosition=bottom;verticalAlign=top;align=center;html=1;fontSize=12;fontStyle=0;aspect=fixed;shape=mxgraph.aws4.resourceIcon;resIcon=mxgraph.aws4.route_table;" vertex="1" parent="1"><mxGeometry x="250" y="1850" width="50" height="50" as="geometry"/></mxCell><mxCell id="32" value="DefaultPrivateCRoute" style="outlineConnect=0;fontColor=#B3B3B3;gradientColor=#945DF2;gradientDirection=north;fillColor=#5A30B5;strokeColor=#ffffff;dashed=0;verticalLabelPosition=bottom;verticalAlign=top;align=center;html=1;fontSize=12;fontStyle=0;aspect=fixed;shape=mxgraph.aws4.resourceIcon;resIcon=mxgraph.aws4.route_table;" vertex="1" parent="1"><mxGeometry y="1500" width="50" height="50" as="geometry"/></mxCell><mxCell id="33" value="SubnetPrivateA" style="outlineConnect=0;fontColor=#B3B3B3;gradientColor=#F78E04;gradientDirection=north;fillColor=#D05C17;strokeColor=#ffffff;dashed=0;verticalLabelPosition=bottom;verticalAlign=top;align=center;html=1;fontSize=12;fontStyle=0;aspect=fixed;shape=mxgraph.aws4.resourceIcon;resIcon=mxgraph.aws4.ec2;" vertex="1" parent="1"><mxGeometry x="250" y="1550" width="50" height="50" as="geometry"/></mxCell><mxCell id="34" value="SubnetPrivateANACLAssociation" style="outlineConnect=0;fontColor=#B3B3B3;gradientColor=#F78E04;gradientDirection=north;fillColor=#D05C17;strokeColor=#ffffff;dashed=0;verticalLabelPosition=bottom;verticalAlign=top;align=center;html=1;fontSize=12;fontStyle=0;aspect=fixed;shape=mxgraph.aws4.resourceIcon;resIcon=mxgraph.aws4.ec2;" vertex="1" parent="1"><mxGeometry y="1700" width="50" height="50" as="geometry"/></mxCell><mxCell id="35" value="SubnetPrivateARouteTable" style="outlineConnect=0;fontColor=#B3B3B3;gradientColor=#945DF2;gradientDirection=north;fillColor=#5A30B5;strokeColor=#ffffff;dashed=0;verticalLabelPosition=bottom;verticalAlign=top;align=center;html=1;fontSize=12;fontStyle=0;aspect=fixed;shape=mxgraph.aws4.resourceIcon;resIcon=mxgraph.aws4.route_table;" vertex="1" parent="1"><mxGeometry y="1200" width="50" height="50" as="geometry"/></mxCell><mxCell id="36" value="SubnetPrivateB" style="outlineConnect=0;fontColor=#B3B3B3;gradientColor=#F78E04;gradientDirection=north;fillColor=#D05C17;strokeColor=#ffffff;dashed=0;verticalLabelPosition=bottom;verticalAlign=top;align=center;html=1;fontSize=12;fontStyle=0;aspect=fixed;shape=mxgraph.aws4.resourceIcon;resIcon=mxgraph.aws4.ec2;" vertex="1" parent="1"><mxGeometry x="250" y="1750" width="50" height="50" as="geometry"/></mxCell><mxCell id="37" value="SubnetPrivateBNACLAssociation" style="outlineConnect=0;fontColor=#B3B3B3;gradientColor=#F78E04;gradientDirection=north;fillColor=#D05C17;strokeColor=#ffffff;dashed=0;verticalLabelPosition=bottom;verticalAlign=top;align=center;html=1;fontSize=12;fontStyle=0;aspect=fixed;shape=mxgraph.aws4.resourceIcon;resIcon=mxgraph.aws4.ec2;" vertex="1" parent="1"><mxGeometry y="1800" width="50" height="50" as="geometry"/></mxCell><mxCell id="38" value="SubnetPrivateBRouteTable" style="outlineConnect=0;fontColor=#B3B3B3;gradientColor=#945DF2;gradientDirection=north;fillColor=#5A30B5;strokeColor=#ffffff;dashed=0;verticalLabelPosition=bottom;verticalAlign=top;align=center;html=1;fontSize=12;fontStyle=0;aspect=fixed;shape=mxgraph.aws4.resourceIcon;resIcon=mxgraph.aws4.route_table;" vertex="1" parent="1"><mxGeometry y="1400" width="50" height="50" as="geometry"/></mxCell><mxCell id="39" value="SubnetPrivateC" style="outlineConnect=0;fontColor=#B3B3B3;gradientColor=#F78E04;gradientDirection=north;fillColor=#D05C17;strokeColor=#ffffff;dashed=0;verticalLabelPosition=bottom;verticalAlign=top;align=center;html=1;fontSize=12;fontStyle=0;aspect=fixed;shape=mxgraph.aws4.resourceIcon;resIcon=mxgraph.aws4.ec2;" vertex="1" parent="1"><mxGeometry x="250" y="1950" width="50" height="50" as="geometry"/></mxCell><mxCell id="40" value="SubnetPrivateCNACLAssociation" style="outlineConnect=0;fontColor=#B3B3B3;gradientColor=#F78E04;gradientDirection=north;fillColor=#D05C17;strokeColor=#ffffff;dashed=0;verticalLabelPosition=bottom;verticalAlign=top;align=center;html=1;fontSize=12;fontStyle=0;aspect=fixed;shape=mxgraph.aws4.resourceIcon;resIcon=mxgraph.aws4.ec2;" vertex="1" parent="1"><mxGeometry y="1900" width="50" height="50" as="geometry"/></mxCell><mxCell id="41" value="SubnetPrivateCRouteTable" style="outlineConnect=0;fontColor=#B3B3B3;gradientColor=#945DF2;gradientDirection=north;fillColor=#5A30B5;strokeColor=#ffffff;dashed=0;verticalLabelPosition=bottom;verticalAlign=top;align=center;html=1;fontSize=12;fontStyle=0;aspect=fixed;shape=mxgraph.aws4.resourceIcon;resIcon=mxgraph.aws4.route_table;" vertex="1" parent="1"><mxGeometry y="1600" width="50" height="50" as="geometry"/></mxCell><mxCell id="42" value="PrivateNetworkAcl" style="outlineConnect=0;fontColor=#B3B3B3;gradientColor=#F78E04;gradientDirection=north;fillColor=#D05C17;strokeColor=#ffffff;dashed=0;verticalLabelPosition=bottom;verticalAlign=top;align=center;html=1;fontSize=12;fontStyle=0;aspect=fixed;shape=mxgraph.aws4.resourceIcon;resIcon=mxgraph.aws4.ec2;" vertex="1" parent="1"><mxGeometry x="250" y="2050" width="50" height="50" as="geometry"/></mxCell><mxCell id="43" value="InboundNACLEntryPrivate" style="outlineConnect=0;fontColor=#B3B3B3;gradientColor=#F78E04;gradientDirection=north;fillColor=#D05C17;strokeColor=#ffffff;dashed=0;verticalLabelPosition=bottom;verticalAlign=top;align=center;html=1;fontSize=12;fontStyle=0;aspect=fixed;shape=mxgraph.aws4.resourceIcon;resIcon=mxgraph.aws4.ec2;" vertex="1" parent="1"><mxGeometry y="2100" width="50" height="50" as="geometry"/></mxCell><mxCell id="44" value="OutboundNACLEntryPrivate" style="outlineConnect=0;fontColor=#B3B3B3;gradientColor=#F78E04;gradientDirection=north;fillColor=#D05C17;strokeColor=#ffffff;dashed=0;verticalLabelPosition=bottom;verticalAlign=top;align=center;html=1;fontSize=12;fontStyle=0;aspect=fixed;shape=mxgraph.aws4.resourceIcon;resIcon=mxgraph.aws4.ec2;" vertex="1" parent="1"><mxGeometry y="2300" width="50" height="50" as="geometry"/></mxCell><mxCell id="45" value="SubnetPrivateDBA" style="outlineConnect=0;fontColor=#B3B3B3;gradientColor=#F78E04;gradientDirection=north;fillColor=#D05C17;strokeColor=#ffffff;dashed=0;verticalLabelPosition=bottom;verticalAlign=top;align=center;html=1;fontSize=12;fontStyle=0;aspect=fixed;shape=mxgraph.aws4.resourceIcon;resIcon=mxgraph.aws4.ec2;" vertex="1" parent="1"><mxGeometry x="250" y="2150" width="50" height="50" as="geometry"/></mxCell><mxCell id="46" value="SubnetPrivateDBANACLAssociation" style="outlineConnect=0;fontColor=#B3B3B3;gradientColor=#F78E04;gradientDirection=north;fillColor=#D05C17;strokeColor=#ffffff;dashed=0;verticalLabelPosition=bottom;verticalAlign=top;align=center;html=1;fontSize=12;fontStyle=0;aspect=fixed;shape=mxgraph.aws4.resourceIcon;resIcon=mxgraph.aws4.ec2;" vertex="1" parent="1"><mxGeometry y="2500" width="50" height="50" as="geometry"/></mxCell><mxCell id="47" value="SubnetPrivateDBARouteTable" style="outlineConnect=0;fontColor=#B3B3B3;gradientColor=#945DF2;gradientDirection=north;fillColor=#5A30B5;strokeColor=#ffffff;dashed=0;verticalLabelPosition=bottom;verticalAlign=top;align=center;html=1;fontSize=12;fontStyle=0;aspect=fixed;shape=mxgraph.aws4.resourceIcon;resIcon=mxgraph.aws4.route_table;" vertex="1" parent="1"><mxGeometry y="2000" width="50" height="50" as="geometry"/></mxCell><mxCell id="48" value="SubnetPrivateDBB" style="outlineConnect=0;fontColor=#B3B3B3;gradientColor=#F78E04;gradientDirection=north;fillColor=#D05C17;strokeColor=#ffffff;dashed=0;verticalLabelPosition=bottom;verticalAlign=top;align=center;html=1;fontSize=12;fontStyle=0;aspect=fixed;shape=mxgraph.aws4.resourceIcon;resIcon=mxgraph.aws4.ec2;" vertex="1" parent="1"><mxGeometry x="250" y="2250" width="50" height="50" as="geometry"/></mxCell><mxCell id="49" value="SubnetPrivateDBBNACLAssociation" style="outlineConnect=0;fontColor=#B3B3B3;gradientColor=#F78E04;gradientDirection=north;fillColor=#D05C17;strokeColor=#ffffff;dashed=0;verticalLabelPosition=bottom;verticalAlign=top;align=center;html=1;fontSize=12;fontStyle=0;aspect=fixed;shape=mxgraph.aws4.resourceIcon;resIcon=mxgraph.aws4.ec2;" vertex="1" parent="1"><mxGeometry y="2600" width="50" height="50" as="geometry"/></mxCell><mxCell id="50" value="SubnetPrivateDBBRouteTable" style="outlineConnect=0;fontColor=#B3B3B3;gradientColor=#945DF2;gradientDirection=north;fillColor=#5A30B5;strokeColor=#ffffff;dashed=0;verticalLabelPosition=bottom;verticalAlign=top;align=center;html=1;fontSize=12;fontStyle=0;aspect=fixed;shape=mxgraph.aws4.resourceIcon;resIcon=mxgraph.aws4.route_table;" vertex="1" parent="1"><mxGeometry y="2200" width="50" height="50" as="geometry"/></mxCell><mxCell id="51" value="SubnetPrivateDBC" style="outlineConnect=0;fontColor=#B3B3B3;gradientColor=#F78E04;gradientDirection=north;fillColor=#D05C17;strokeColor=#ffffff;dashed=0;verticalLabelPosition=bottom;verticalAlign=top;align=center;html=1;fontSize=12;fontStyle=0;aspect=fixed;shape=mxgraph.aws4.resourceIcon;resIcon=mxgraph.aws4.ec2;" vertex="1" parent="1"><mxGeometry x="250" y="2350" width="50" height="50" as="geometry"/></mxCell><mxCell id="52" value="SubnetPrivateDBCNACLAssociation" style="outlineConnect=0;fontColor=#B3B3B3;gradientColor=#F78E04;gradientDirection=north;fillColor=#D05C17;strokeColor=#ffffff;dashed=0;verticalLabelPosition=bottom;verticalAlign=top;align=center;html=1;fontSize=12;fontStyle=0;aspect=fixed;shape=mxgraph.aws4.resourceIcon;resIcon=mxgraph.aws4.ec2;" vertex="1" parent="1"><mxGeometry y="2700" width="50" height="50" as="geometry"/></mxCell><mxCell id="53" value="SubnetPrivateDBCRouteTable" style="outlineConnect=0;fontColor=#B3B3B3;gradientColor=#945DF2;gradientDirection=north;fillColor=#5A30B5;strokeColor=#ffffff;dashed=0;verticalLabelPosition=bottom;verticalAlign=top;align=center;html=1;fontSize=12;fontStyle=0;aspect=fixed;shape=mxgraph.aws4.resourceIcon;resIcon=mxgraph.aws4.route_table;" vertex="1" parent="1"><mxGeometry y="2400" width="50" height="50" as="geometry"/></mxCell><mxCell id="54" value="iam  aws&#xA;policy/service-role/amazonec2roleforssm" style="outlineConnect=0;fontColor=#B3B3B3;gradientColor=#aaaaaa;gradientDirection=north;fillColor=#aaaaaa;strokeColor=#ffffff;dashed=0;verticalLabelPosition=bottom;verticalAlign=top;align=center;html=1;fontSize=12;fontStyle=0;aspect=fixed;shape=mxgraph.aws4.resourceIcon;resIcon=mxgraph.aws4.identity_and_access_management;" vertex="1" parent="1"><mxGeometry x="1000" y="1201.5625" width="50" height="50" as="geometry"/></mxCell><mxCell id="VPC|VPCDHCPOptionsAssociation" value="VpcId" style="edgeStyle=orthogonalEdgeStyle;rounded=1;orthogonalLoop=1;jettySize=auto;html=1;labelBackgroundColor=none;fontColor=#EA6B66;noEdgeStyle=1;orthogonal=1;" edge="1" parent="1" source="4" target="2"><mxGeometry relative="1" as="geometry"><Array as="points"><mxPoint x="62" y="15"/><mxPoint x="150" y="350"/><mxPoint x="400" y="350"/><mxPoint x="400" y="350"/><mxPoint x="650" y="350"/><mxPoint x="738" y="1501.388888888889"/></Array></mxGeometry></mxCell><mxCell id="VPCDHCPOptions|VPCDHCPOptionsAssociation" value="DhcpOptionsId" style="edgeStyle=orthogonalEdgeStyle;rounded=1;orthogonalLoop=1;jettySize=auto;html=1;labelBackgroundColor=none;fontColor=#EA6B66;noEdgeStyle=1;orthogonal=1;" edge="1" parent="1" source="4" target="3"><mxGeometry relative="1" as="geometry"><Array as="points"><mxPoint x="62" y="35"/><mxPoint x="238" y="425"/></Array></mxGeometry></mxCell><mxCell id="InternetGateway|InternetGatewayAttachment" value="InternetGatewayId" style="edgeStyle=orthogonalEdgeStyle;rounded=1;orthogonalLoop=1;jettySize=auto;html=1;labelBackgroundColor=none;fontColor=#EA6B66;noEdgeStyle=1;orthogonal=1;" edge="1" parent="1" source="6" target="5"><mxGeometry relative="1" as="geometry"><Array as="points"><mxPoint x="62" y="135"/><mxPoint x="238" y="565"/></Array></mxGeometry></mxCell><mxCell id="VPC|InternetGatewayAttachment" value="VpcId" style="edgeStyle=orthogonalEdgeStyle;rounded=1;orthogonalLoop=1;jettySize=auto;html=1;labelBackgroundColor=none;fontColor=#EA6B66;noEdgeStyle=1;orthogonal=1;" edge="1" parent="1" source="6" target="2"><mxGeometry relative="1" as="geometry"><Array as="points"><mxPoint x="62" y="115"/><mxPoint x="150" y="500"/><mxPoint x="400" y="500"/><mxPoint x="400" y="500"/><mxPoint x="650" y="500"/><mxPoint x="736" y="1504.1666666666667"/></Array></mxGeometry></mxCell><mxCell id="VPC|PublicRouteTable" value="VpcId" style="edgeStyle=orthogonalEdgeStyle;rounded=1;orthogonalLoop=1;jettySize=auto;html=1;labelBackgroundColor=none;fontColor=#EA6B66;noEdgeStyle=1;orthogonal=1;" edge="1" parent="1" source="7" target="2"><mxGeometry relative="1" as="geometry"><Array as="points"><mxPoint x="312" y="875"/><mxPoint x="400" y="1050"/><mxPoint x="650" y="1050"/><mxPoint x="730" y="1512.5000000000002"/></Array></mxGeometry></mxCell><mxCell id="PublicRouteTable|DefaultPublicRoute" value="RouteTableId" style="edgeStyle=orthogonalEdgeStyle;rounded=1;orthogonalLoop=1;jettySize=auto;html=1;labelBackgroundColor=none;fontColor=#EA6B66;noEdgeStyle=1;orthogonal=1;" edge="1" parent="1" source="8" target="7"><mxGeometry relative="1" as="geometry"><Array as="points"><mxPoint x="62" y="435"/><mxPoint x="238" y="860"/></Array></mxGeometry></mxCell><mxCell id="InternetGateway|DefaultPublicRoute" value="GatewayId" style="edgeStyle=orthogonalEdgeStyle;rounded=1;orthogonalLoop=1;jettySize=auto;html=1;labelBackgroundColor=none;fontColor=#EA6B66;noEdgeStyle=1;orthogonal=1;" edge="1" parent="1" source="8" target="5"><mxGeometry relative="1" as="geometry"><Array as="points"><mxPoint x="62" y="415"/><mxPoint x="238" y="585"/></Array></mxGeometry></mxCell><mxCell id="VPC|PublicNetworkAcl" value="VpcId" style="edgeStyle=orthogonalEdgeStyle;rounded=1;orthogonalLoop=1;jettySize=auto;html=1;labelBackgroundColor=none;fontColor=#EA6B66;noEdgeStyle=1;orthogonal=1;" edge="1" parent="1" source="9" target="2"><mxGeometry relative="1" as="geometry"><Array as="points"><mxPoint x="312" y="675"/><mxPoint x="400" y="900"/><mxPoint x="650" y="900"/><mxPoint x="734" y="1506.9444444444446"/></Array></mxGeometry></mxCell><mxCell id="PublicNetworkAcl|InboundNACLEntryPublic" value="NetworkAclId" style="edgeStyle=orthogonalEdgeStyle;rounded=1;orthogonalLoop=1;jettySize=auto;html=1;labelBackgroundColor=none;fontColor=#EA6B66;noEdgeStyle=1;orthogonal=1;" edge="1" parent="1" source="10" target="9"><mxGeometry relative="1" as="geometry"><Array as="points"><mxPoint x="62" y="325"/><mxPoint x="236" y="667"/></Array></mxGeometry></mxCell><mxCell id="PublicNetworkAcl|OutboundNACLEntryPublic" value="NetworkAclId" style="edgeStyle=orthogonalEdgeStyle;rounded=1;orthogonalLoop=1;jettySize=auto;html=1;labelBackgroundColor=none;fontColor=#EA6B66;noEdgeStyle=1;orthogonal=1;" edge="1" parent="1" source="11" target="9"><mxGeometry relative="1" as="geometry"><Array as="points"><mxPoint x="62" y="225"/><mxPoint x="238" y="659"/></Array></mxGeometry></mxCell><mxCell id="VPC|SubnetPublicA" value="VpcId" style="edgeStyle=orthogonalEdgeStyle;rounded=1;orthogonalLoop=1;jettySize=auto;html=1;labelBackgroundColor=none;fontColor=#EA6B66;noEdgeStyle=1;orthogonal=1;" edge="1" parent="1" source="12" target="2"><mxGeometry relative="1" as="geometry"><Array as="points"><mxPoint x="562" y="975"/><mxPoint x="732" y="1509.7222222222224"/></Array></mxGeometry></mxCell><mxCell id="PublicNetworkAcl|SubnetPublicANACLAssociation" value="NetworkAclId" style="edgeStyle=orthogonalEdgeStyle;rounded=1;orthogonalLoop=1;jettySize=auto;html=1;labelBackgroundColor=none;fontColor=#EA6B66;noEdgeStyle=1;orthogonal=1;" edge="1" parent="1" source="13" target="9"><mxGeometry relative="1" as="geometry"><Array as="points"><mxPoint x="62" y="515"/><mxPoint x="234" y="675"/></Array></mxGeometry></mxCell><mxCell id="SubnetPublicA|SubnetPublicANACLAssociation" value="SubnetId" style="edgeStyle=orthogonalEdgeStyle;rounded=1;orthogonalLoop=1;jettySize=auto;html=1;labelBackgroundColor=none;fontColor=#EA6B66;noEdgeStyle=1;orthogonal=1;" edge="1" parent="1" source="13" target="12"><mxGeometry relative="1" as="geometry"><Array as="points"><mxPoint x="62" y="535"/><mxPoint x="150" y="750"/><mxPoint x="400" y="750"/><mxPoint x="488" y="961.6666666666666"/></Array></mxGeometry></mxCell><mxCell id="PublicRouteTable|SubnetPublicARouteTable" value="RouteTableId" style="edgeStyle=orthogonalEdgeStyle;rounded=1;orthogonalLoop=1;jettySize=auto;html=1;labelBackgroundColor=none;fontColor=#EA6B66;noEdgeStyle=1;orthogonal=1;" edge="1" parent="1" source="14" target="7"><mxGeometry relative="1" as="geometry"><Array as="points"><mxPoint x="62" y="635"/><mxPoint x="236" y="870"/></Array></mxGeometry></mxCell><mxCell id="SubnetPublicA|SubnetPublicARouteTable" value="SubnetId" style="edgeStyle=orthogonalEdgeStyle;rounded=1;orthogonalLoop=1;jettySize=auto;html=1;labelBackgroundColor=none;fontColor=#EA6B66;noEdgeStyle=1;orthogonal=1;" edge="1" parent="1" source="14" target="12"><mxGeometry relative="1" as="geometry"><Array as="points"><mxPoint x="62" y="615"/><mxPoint x="150" y="800"/><mxPoint x="400" y="800"/><mxPoint x="486" y="975"/></Array></mxGeometry></mxCell><mxCell id="VPC|SubnetPublicB" value="VpcId" style="edgeStyle=orthogonalEdgeStyle;rounded=1;orthogonalLoop=1;jettySize=auto;html=1;labelBackgroundColor=none;fontColor=#EA6B66;noEdgeStyle=1;orthogonal=1;" edge="1" parent="1" source="15" target="2"><mxGeometry relative="1" as="geometry"><Array as="points"><mxPoint x="562" y="1125"/><mxPoint x="728" y="1515.277777777778"/></Array></mxGeometry></mxCell><mxCell id="PublicNetworkAcl|SubnetPublicBNACLAssociation" value="NetworkAclId" style="edgeStyle=orthogonalEdgeStyle;rounded=1;orthogonalLoop=1;jettySize=auto;html=1;labelBackgroundColor=none;fontColor=#EA6B66;noEdgeStyle=1;orthogonal=1;" edge="1" parent="1" source="16" target="9"><mxGeometry relative="1" as="geometry"><Array as="points"><mxPoint x="62" y="715"/><mxPoint x="236" y="683"/></Array></mxGeometry></mxCell><mxCell id="SubnetPublicB|SubnetPublicBNACLAssociation" value="SubnetId" style="edgeStyle=orthogonalEdgeStyle;rounded=1;orthogonalLoop=1;jettySize=auto;html=1;labelBackgroundColor=none;fontColor=#EA6B66;noEdgeStyle=1;orthogonal=1;" edge="1" parent="1" source="16" target="15"><mxGeometry relative="1" as="geometry"><Array as="points"><mxPoint x="62" y="735"/><mxPoint x="150" y="950"/><mxPoint x="400" y="950"/><mxPoint x="488" y="1111.6666666666667"/></Array></mxGeometry></mxCell><mxCell id="PublicRouteTable|SubnetPublicBRouteTable" value="RouteTableId" style="edgeStyle=orthogonalEdgeStyle;rounded=1;orthogonalLoop=1;jettySize=auto;html=1;labelBackgroundColor=none;fontColor=#EA6B66;noEdgeStyle=1;orthogonal=1;" edge="1" parent="1" source="17" target="7"><mxGeometry relative="1" as="geometry"><Array as="points"><mxPoint x="62" y="815"/><mxPoint x="236" y="880"/></Array></mxGeometry></mxCell><mxCell id="SubnetPublicB|SubnetPublicBRouteTable" value="SubnetId" style="edgeStyle=orthogonalEdgeStyle;rounded=1;orthogonalLoop=1;jettySize=auto;html=1;labelBackgroundColor=none;fontColor=#EA6B66;noEdgeStyle=1;orthogonal=1;" edge="1" parent="1" source="17" target="15"><mxGeometry relative="1" as="geometry"><Array as="points"><mxPoint x="62" y="835"/><mxPoint x="150" y="1000"/><mxPoint x="400" y="1000"/><mxPoint x="486" y="1125"/></Array></mxGeometry></mxCell><mxCell id="VPC|SubnetPublicC" value="VpcId" style="edgeStyle=orthogonalEdgeStyle;rounded=1;orthogonalLoop=1;jettySize=auto;html=1;labelBackgroundColor=none;fontColor=#EA6B66;noEdgeStyle=1;orthogonal=1;" edge="1" parent="1" source="18" target="2"><mxGeometry relative="1" as="geometry"><Array as="points"><mxPoint x="562" y="1425"/><mxPoint x="724" y="1520.8333333333337"/></Array></mxGeometry></mxCell><mxCell id="PublicNetworkAcl|SubnetPublicCNACLAssociation" value="NetworkAclId" style="edgeStyle=orthogonalEdgeStyle;rounded=1;orthogonalLoop=1;jettySize=auto;html=1;labelBackgroundColor=none;fontColor=#EA6B66;noEdgeStyle=1;orthogonal=1;" edge="1" parent="1" source="19" target="9"><mxGeometry relative="1" as="geometry"><Array as="points"><mxPoint x="62" y="915"/><mxPoint x="238" y="691"/></Array></mxGeometry></mxCell><mxCell id="SubnetPublicC|SubnetPublicCNACLAssociation" value="SubnetId" style="edgeStyle=orthogonalEdgeStyle;rounded=1;orthogonalLoop=1;jettySize=auto;html=1;labelBackgroundColor=none;fontColor=#EA6B66;noEdgeStyle=1;orthogonal=1;" edge="1" parent="1" source="19" target="18"><mxGeometry relative="1" as="geometry"><Array as="points"><mxPoint x="62" y="935"/><mxPoint x="150" y="1250"/><mxPoint x="400" y="1250"/><mxPoint x="488" y="1411.6666666666667"/></Array></mxGeometry></mxCell><mxCell id="PublicRouteTable|SubnetPublicCRouteTable" value="RouteTableId" style="edgeStyle=orthogonalEdgeStyle;rounded=1;orthogonalLoop=1;jettySize=auto;html=1;labelBackgroundColor=none;fontColor=#EA6B66;noEdgeStyle=1;orthogonal=1;" edge="1" parent="1" source="20" target="7"><mxGeometry relative="1" as="geometry"><Array as="points"><mxPoint x="62" y="1015"/><mxPoint x="238" y="890"/></Array></mxGeometry></mxCell><mxCell id="SubnetPublicC|SubnetPublicCRouteTable" value="SubnetId" style="edgeStyle=orthogonalEdgeStyle;rounded=1;orthogonalLoop=1;jettySize=auto;html=1;labelBackgroundColor=none;fontColor=#EA6B66;noEdgeStyle=1;orthogonal=1;" edge="1" parent="1" source="20" target="18"><mxGeometry relative="1" as="geometry"><Array as="points"><mxPoint x="62" y="1035"/><mxPoint x="150" y="1400"/><mxPoint x="400" y="1400"/><mxPoint x="488" y="1438.3333333333333"/></Array></mxGeometry></mxCell><mxCell id="iam  aws&#xA;policy/service-role/amazonec2roleforssm|NatRole" value="ManagedPolicyArns" style="edgeStyle=orthogonalEdgeStyle;rounded=1;orthogonalLoop=1;jettySize=auto;html=1;labelBackgroundColor=none;fontColor=#EA6B66;noEdgeStyle=1;orthogonal=1;" edge="1" parent="1" source="21" target="54"><mxGeometry relative="1" as="geometry"><Array as="points"><mxPoint x="812" y="1226.5625"/><mxPoint x="988" y="1226.5625"/></Array></mxGeometry></mxCell><mxCell id="NatRole|NatInstanceProfile" value="Roles" style="edgeStyle=orthogonalEdgeStyle;rounded=1;orthogonalLoop=1;jettySize=auto;html=1;labelBackgroundColor=none;fontColor=#EA6B66;noEdgeStyle=1;orthogonal=1;" edge="1" parent="1" source="22" target="21"><mxGeometry relative="1" as="geometry"><Array as="points"><mxPoint x="562" y="1225"/><mxPoint x="738" y="1226.5625"/></Array></mxGeometry></mxCell><mxCell id="VPC|NatGatewaySecurityGroup" value="VpcId" style="edgeStyle=orthogonalEdgeStyle;rounded=1;orthogonalLoop=1;jettySize=auto;html=1;labelBackgroundColor=none;fontColor=#EA6B66;noEdgeStyle=1;orthogonal=1;" edge="1" parent="1" source="23" target="2"><mxGeometry relative="1" as="geometry"><Array as="points"><mxPoint x="562" y="1325"/><mxPoint x="726" y="1518.0555555555559"/></Array></mxGeometry></mxCell><mxCell id="SubnetPublicA|NatGatewayInstanceA" value="SubnetId" style="edgeStyle=orthogonalEdgeStyle;rounded=1;orthogonalLoop=1;jettySize=auto;html=1;labelBackgroundColor=none;fontColor=#EA6B66;noEdgeStyle=1;orthogonal=1;" edge="1" parent="1" source="24" target="12"><mxGeometry relative="1" as="geometry"><Array as="points"><mxPoint x="312" y="1061.6666666666667"/><mxPoint x="488" y="988.3333333333334"/></Array></mxGeometry></mxCell><mxCell id="NatGatewaySecurityGroup|NatGatewayInstanceA" value="SecurityGroupIds" style="edgeStyle=orthogonalEdgeStyle;rounded=1;orthogonalLoop=1;jettySize=auto;html=1;labelBackgroundColor=none;fontColor=#EA6B66;noEdgeStyle=1;orthogonal=1;" edge="1" parent="1" source="24" target="23"><mxGeometry relative="1" as="geometry"><Array as="points"><mxPoint x="312" y="1088.3333333333333"/><mxPoint x="488" y="1311.6666666666667"/></Array></mxGeometry></mxCell><mxCell id="NatInstanceProfile|NatGatewayInstanceA" value="IamInstanceProfile" style="edgeStyle=orthogonalEdgeStyle;rounded=1;orthogonalLoop=1;jettySize=auto;html=1;labelBackgroundColor=none;fontColor=#EA6B66;noEdgeStyle=1;orthogonal=1;" edge="1" parent="1" source="24" target="22"><mxGeometry relative="1" as="geometry"><Array as="points"><mxPoint x="314" y="1075"/><mxPoint x="488" y="1211.6666666666667"/></Array></mxGeometry></mxCell><mxCell id="VPC|PrivateARouteTable" value="VpcId" style="edgeStyle=orthogonalEdgeStyle;rounded=1;orthogonalLoop=1;jettySize=auto;html=1;labelBackgroundColor=none;fontColor=#EA6B66;noEdgeStyle=1;orthogonal=1;" edge="1" parent="1" source="25" target="2"><mxGeometry relative="1" as="geometry"><Array as="points"><mxPoint x="312" y="1475"/><mxPoint x="400" y="1500"/><mxPoint x="650" y="1500"/><mxPoint x="722" y="1523.6111111111115"/></Array></mxGeometry></mxCell><mxCell id="PrivateARouteTable|DefaultPrivateARoute" value="RouteTableId" style="edgeStyle=orthogonalEdgeStyle;rounded=1;orthogonalLoop=1;jettySize=auto;html=1;labelBackgroundColor=none;fontColor=#EA6B66;noEdgeStyle=1;orthogonal=1;" edge="1" parent="1" source="26" target="25"><mxGeometry relative="1" as="geometry"><Array as="points"><mxPoint x="62" y="1135"/><mxPoint x="238" y="1461.6666666666667"/></Array></mxGeometry></mxCell><mxCell id="NatGatewayInstanceA|DefaultPrivateARoute" value="InstanceId" style="edgeStyle=orthogonalEdgeStyle;rounded=1;orthogonalLoop=1;jettySize=auto;html=1;labelBackgroundColor=none;fontColor=#EA6B66;noEdgeStyle=1;orthogonal=1;" edge="1" parent="1" source="26" target="24"><mxGeometry relative="1" as="geometry"><Array as="points"><mxPoint x="62" y="1115"/><mxPoint x="238" y="1075"/></Array></mxGeometry></mxCell><mxCell id="SubnetPublicB|NatGatewayInstanceB" value="SubnetId" style="edgeStyle=orthogonalEdgeStyle;rounded=1;orthogonalLoop=1;jettySize=auto;html=1;labelBackgroundColor=none;fontColor=#EA6B66;noEdgeStyle=1;orthogonal=1;" edge="1" parent="1" source="27" target="15"><mxGeometry relative="1" as="geometry"><Array as="points"><mxPoint x="312" y="1161.6666666666667"/><mxPoint x="488" y="1138.3333333333333"/></Array></mxGeometry></mxCell><mxCell id="NatGatewaySecurityGroup|NatGatewayInstanceB" value="SecurityGroupIds" style="edgeStyle=orthogonalEdgeStyle;rounded=1;orthogonalLoop=1;jettySize=auto;html=1;labelBackgroundColor=none;fontColor=#EA6B66;noEdgeStyle=1;orthogonal=1;" edge="1" parent="1" source="27" target="23"><mxGeometry relative="1" as="geometry"><Array as="points"><mxPoint x="312" y="1188.3333333333333"/><mxPoint x="486" y="1325"/></Array></mxGeometry></mxCell><mxCell id="NatInstanceProfile|NatGatewayInstanceB" value="IamInstanceProfile" style="edgeStyle=orthogonalEdgeStyle;rounded=1;orthogonalLoop=1;jettySize=auto;html=1;labelBackgroundColor=none;fontColor=#EA6B66;noEdgeStyle=1;orthogonal=1;" edge="1" parent="1" source="27" target="22"><mxGeometry relative="1" as="geometry"><Array as="points"><mxPoint x="314" y="1175"/><mxPoint x="486" y="1225"/></Array></mxGeometry></mxCell><mxCell id="VPC|PrivateBRouteTable" value="VpcId" style="edgeStyle=orthogonalEdgeStyle;rounded=1;orthogonalLoop=1;jettySize=auto;html=1;labelBackgroundColor=none;fontColor=#EA6B66;noEdgeStyle=1;orthogonal=1;" edge="1" parent="1" source="28" target="2"><mxGeometry relative="1" as="geometry"><Array as="points"><mxPoint x="312" y="1675"/><mxPoint x="400" y="1600"/><mxPoint x="650" y="1600"/><mxPoint x="724" y="1529.1666666666672"/></Array></mxGeometry></mxCell><mxCell id="PrivateBRouteTable|DefaultPrivateBRoute" value="RouteTableId" style="edgeStyle=orthogonalEdgeStyle;rounded=1;orthogonalLoop=1;jettySize=auto;html=1;labelBackgroundColor=none;fontColor=#EA6B66;noEdgeStyle=1;orthogonal=1;" edge="1" parent="1" source="29" target="28"><mxGeometry relative="1" as="geometry"><Array as="points"><mxPoint x="62" y="1335"/><mxPoint x="238" y="1661.6666666666667"/></Array></mxGeometry></mxCell><mxCell id="NatGatewayInstanceB|DefaultPrivateBRoute" value="InstanceId" style="edgeStyle=orthogonalEdgeStyle;rounded=1;orthogonalLoop=1;jettySize=auto;html=1;labelBackgroundColor=none;fontColor=#EA6B66;noEdgeStyle=1;orthogonal=1;" edge="1" parent="1" source="29" target="27"><mxGeometry relative="1" as="geometry"><Array as="points"><mxPoint x="62" y="1315"/><mxPoint x="238" y="1175"/></Array></mxGeometry></mxCell><mxCell id="SubnetPublicC|NatGatewayInstanceC" value="SubnetId" style="edgeStyle=orthogonalEdgeStyle;rounded=1;orthogonalLoop=1;jettySize=auto;html=1;labelBackgroundColor=none;fontColor=#EA6B66;noEdgeStyle=1;orthogonal=1;" edge="1" parent="1" source="30" target="18"><mxGeometry relative="1" as="geometry"><Array as="points"><mxPoint x="312" y="1338.3333333333333"/><mxPoint x="486" y="1425"/></Array></mxGeometry></mxCell><mxCell id="NatGatewaySecurityGroup|NatGatewayInstanceC" value="SecurityGroupIds" style="edgeStyle=orthogonalEdgeStyle;rounded=1;orthogonalLoop=1;jettySize=auto;html=1;labelBackgroundColor=none;fontColor=#EA6B66;noEdgeStyle=1;orthogonal=1;" edge="1" parent="1" source="30" target="23"><mxGeometry relative="1" as="geometry"><Array as="points"><mxPoint x="314" y="1325"/><mxPoint x="488" y="1338.3333333333333"/></Array></mxGeometry></mxCell><mxCell id="NatInstanceProfile|NatGatewayInstanceC" value="IamInstanceProfile" style="edgeStyle=orthogonalEdgeStyle;rounded=1;orthogonalLoop=1;jettySize=auto;html=1;labelBackgroundColor=none;fontColor=#EA6B66;noEdgeStyle=1;orthogonal=1;" edge="1" parent="1" source="30" target="22"><mxGeometry relative="1" as="geometry"><Array as="points"><mxPoint x="312" y="1311.6666666666667"/><mxPoint x="488" y="1238.3333333333333"/></Array></mxGeometry></mxCell><mxCell id="VPC|PrivateCRouteTable" value="VpcId" style="edgeStyle=orthogonalEdgeStyle;rounded=1;orthogonalLoop=1;jettySize=auto;html=1;labelBackgroundColor=none;fontColor=#EA6B66;noEdgeStyle=1;orthogonal=1;" edge="1" parent="1" source="31" target="2"><mxGeometry relative="1" as="geometry"><Array as="points"><mxPoint x="312" y="1875"/><mxPoint x="400" y="1700"/><mxPoint x="650" y="1700"/><mxPoint x="728" y="1534.7222222222229"/></Array></mxGeometry></mxCell><mxCell id="PrivateCRouteTable|DefaultPrivateCRoute" value="RouteTableId" style="edgeStyle=orthogonalEdgeStyle;rounded=1;orthogonalLoop=1;jettySize=auto;html=1;labelBackgroundColor=none;fontColor=#EA6B66;noEdgeStyle=1;orthogonal=1;" edge="1" parent="1" source="32" target="31"><mxGeometry relative="1" as="geometry"><Array as="points"><mxPoint x="62" y="1535"/><mxPoint x="238" y="1861.6666666666667"/></Array></mxGeometry></mxCell><mxCell id="NatGatewayInstanceC|DefaultPrivateCRoute" value="InstanceId" style="edgeStyle=orthogonalEdgeStyle;rounded=1;orthogonalLoop=1;jettySize=auto;html=1;labelBackgroundColor=none;fontColor=#EA6B66;noEdgeStyle=1;orthogonal=1;" edge="1" parent="1" source="32" target="30"><mxGeometry relative="1" as="geometry"><Array as="points"><mxPoint x="62" y="1515"/><mxPoint x="238" y="1325"/></Array></mxGeometry></mxCell><mxCell id="VPC|SubnetPrivateA" value="VpcId" style="edgeStyle=orthogonalEdgeStyle;rounded=1;orthogonalLoop=1;jettySize=auto;html=1;labelBackgroundColor=none;fontColor=#EA6B66;noEdgeStyle=1;orthogonal=1;" edge="1" parent="1" source="33" target="2"><mxGeometry relative="1" as="geometry"><Array as="points"><mxPoint x="312" y="1575"/><mxPoint x="400" y="1550"/><mxPoint x="650" y="1550"/><mxPoint x="722" y="1526.3888888888894"/></Array></mxGeometry></mxCell><mxCell id="PrivateNetworkAcl|SubnetPrivateANACLAssociation" value="NetworkAclId" style="edgeStyle=orthogonalEdgeStyle;rounded=1;orthogonalLoop=1;jettySize=auto;html=1;labelBackgroundColor=none;fontColor=#EA6B66;noEdgeStyle=1;orthogonal=1;" edge="1" parent="1" source="34" target="42"><mxGeometry relative="1" as="geometry"><Array as="points"><mxPoint x="62" y="1735"/><mxPoint x="238" y="2053.125"/></Array></mxGeometry></mxCell><mxCell id="SubnetPrivateA|SubnetPrivateANACLAssociation" value="SubnetId" style="edgeStyle=orthogonalEdgeStyle;rounded=1;orthogonalLoop=1;jettySize=auto;html=1;labelBackgroundColor=none;fontColor=#EA6B66;noEdgeStyle=1;orthogonal=1;" edge="1" parent="1" source="34" target="33"><mxGeometry relative="1" as="geometry"><Array as="points"><mxPoint x="62" y="1715"/><mxPoint x="238" y="1585"/></Array></mxGeometry></mxCell><mxCell id="PrivateARouteTable|SubnetPrivateARouteTable" value="RouteTableId" style="edgeStyle=orthogonalEdgeStyle;rounded=1;orthogonalLoop=1;jettySize=auto;html=1;labelBackgroundColor=none;fontColor=#EA6B66;noEdgeStyle=1;orthogonal=1;" edge="1" parent="1" source="35" target="25"><mxGeometry relative="1" as="geometry"><Array as="points"><mxPoint x="62" y="1215"/><mxPoint x="236" y="1475"/></Array></mxGeometry></mxCell><mxCell id="SubnetPrivateA|SubnetPrivateARouteTable" value="SubnetId" style="edgeStyle=orthogonalEdgeStyle;rounded=1;orthogonalLoop=1;jettySize=auto;html=1;labelBackgroundColor=none;fontColor=#EA6B66;noEdgeStyle=1;orthogonal=1;" edge="1" parent="1" source="35" target="33"><mxGeometry relative="1" as="geometry"><Array as="points"><mxPoint x="62" y="1235"/><mxPoint x="238" y="1565"/></Array></mxGeometry></mxCell><mxCell id="VPC|SubnetPrivateB" value="VpcId" style="edgeStyle=orthogonalEdgeStyle;rounded=1;orthogonalLoop=1;jettySize=auto;html=1;labelBackgroundColor=none;fontColor=#EA6B66;noEdgeStyle=1;orthogonal=1;" edge="1" parent="1" source="36" target="2"><mxGeometry relative="1" as="geometry"><Array as="points"><mxPoint x="312" y="1775"/><mxPoint x="400" y="1650"/><mxPoint x="650" y="1650"/><mxPoint x="726" y="1531.944444444445"/></Array></mxGeometry></mxCell><mxCell id="PrivateNetworkAcl|SubnetPrivateBNACLAssociation" value="NetworkAclId" style="edgeStyle=orthogonalEdgeStyle;rounded=1;orthogonalLoop=1;jettySize=auto;html=1;labelBackgroundColor=none;fontColor=#EA6B66;noEdgeStyle=1;orthogonal=1;" edge="1" parent="1" source="37" target="42"><mxGeometry relative="1" as="geometry"><Array as="points"><mxPoint x="62" y="1835"/><mxPoint x="236" y="2059.375"/></Array></mxGeometry></mxCell><mxCell id="SubnetPrivateB|SubnetPrivateBNACLAssociation" value="SubnetId" style="edgeStyle=orthogonalEdgeStyle;rounded=1;orthogonalLoop=1;jettySize=auto;html=1;labelBackgroundColor=none;fontColor=#EA6B66;noEdgeStyle=1;orthogonal=1;" edge="1" parent="1" source="37" target="36"><mxGeometry relative="1" as="geometry"><Array as="points"><mxPoint x="62" y="1815"/><mxPoint x="238" y="1785"/></Array></mxGeometry></mxCell><mxCell id="PrivateBRouteTable|SubnetPrivateBRouteTable" value="RouteTableId" style="edgeStyle=orthogonalEdgeStyle;rounded=1;orthogonalLoop=1;jettySize=auto;html=1;labelBackgroundColor=none;fontColor=#EA6B66;noEdgeStyle=1;orthogonal=1;" edge="1" parent="1" source="38" target="28"><mxGeometry relative="1" as="geometry"><Array as="points"><mxPoint x="62" y="1415"/><mxPoint x="236" y="1675"/></Array></mxGeometry></mxCell><mxCell id="SubnetPrivateB|SubnetPrivateBRouteTable" value="SubnetId" style="edgeStyle=orthogonalEdgeStyle;rounded=1;orthogonalLoop=1;jettySize=auto;html=1;labelBackgroundColor=none;fontColor=#EA6B66;noEdgeStyle=1;orthogonal=1;" edge="1" parent="1" source="38" target="36"><mxGeometry relative="1" as="geometry"><Array as="points"><mxPoint x="62" y="1435"/><mxPoint x="238" y="1765"/></Array></mxGeometry></mxCell><mxCell id="VPC|SubnetPrivateC" value="VpcId" style="edgeStyle=orthogonalEdgeStyle;rounded=1;orthogonalLoop=1;jettySize=auto;html=1;labelBackgroundColor=none;fontColor=#EA6B66;noEdgeStyle=1;orthogonal=1;" edge="1" parent="1" source="39" target="2"><mxGeometry relative="1" as="geometry"><Array as="points"><mxPoint x="312" y="1975"/><mxPoint x="400" y="1750"/><mxPoint x="650" y="1750"/><mxPoint x="730" y="1537.5000000000007"/></Array></mxGeometry></mxCell><mxCell id="PrivateNetworkAcl|SubnetPrivateCNACLAssociation" value="NetworkAclId" style="edgeStyle=orthogonalEdgeStyle;rounded=1;orthogonalLoop=1;jettySize=auto;html=1;labelBackgroundColor=none;fontColor=#EA6B66;noEdgeStyle=1;orthogonal=1;" edge="1" parent="1" source="40" target="42"><mxGeometry relative="1" as="geometry"><Array as="points"><mxPoint x="62" y="1935"/><mxPoint x="234" y="2065.625"/></Array></mxGeometry></mxCell><mxCell id="SubnetPrivateC|SubnetPrivateCNACLAssociation" value="SubnetId" style="edgeStyle=orthogonalEdgeStyle;rounded=1;orthogonalLoop=1;jettySize=auto;html=1;labelBackgroundColor=none;fontColor=#EA6B66;noEdgeStyle=1;orthogonal=1;" edge="1" parent="1" source="40" target="39"><mxGeometry relative="1" as="geometry"><Array as="points"><mxPoint x="62" y="1915"/><mxPoint x="238" y="1985"/></Array></mxGeometry></mxCell><mxCell id="PrivateCRouteTable|SubnetPrivateCRouteTable" value="RouteTableId" style="edgeStyle=orthogonalEdgeStyle;rounded=1;orthogonalLoop=1;jettySize=auto;html=1;labelBackgroundColor=none;fontColor=#EA6B66;noEdgeStyle=1;orthogonal=1;" edge="1" parent="1" source="41" target="31"><mxGeometry relative="1" as="geometry"><Array as="points"><mxPoint x="62" y="1615"/><mxPoint x="236" y="1875"/></Array></mxGeometry></mxCell><mxCell id="SubnetPrivateC|SubnetPrivateCRouteTable" value="SubnetId" style="edgeStyle=orthogonalEdgeStyle;rounded=1;orthogonalLoop=1;jettySize=auto;html=1;labelBackgroundColor=none;fontColor=#EA6B66;noEdgeStyle=1;orthogonal=1;" edge="1" parent="1" source="41" target="39"><mxGeometry relative="1" as="geometry"><Array as="points"><mxPoint x="62" y="1635"/><mxPoint x="238" y="1965"/></Array></mxGeometry></mxCell><mxCell id="VPC|PrivateNetworkAcl" value="VpcId" style="edgeStyle=orthogonalEdgeStyle;rounded=1;orthogonalLoop=1;jettySize=auto;html=1;labelBackgroundColor=none;fontColor=#EA6B66;noEdgeStyle=1;orthogonal=1;" edge="1" parent="1" source="42" target="2"><mxGeometry relative="1" as="geometry"><Array as="points"><mxPoint x="312" y="2075"/><mxPoint x="400" y="1800"/><mxPoint x="650" y="1800"/><mxPoint x="732" y="1540.2777777777785"/></Array></mxGeometry></mxCell><mxCell id="PrivateNetworkAcl|InboundNACLEntryPrivate" value="NetworkAclId" style="edgeStyle=orthogonalEdgeStyle;rounded=1;orthogonalLoop=1;jettySize=auto;html=1;labelBackgroundColor=none;fontColor=#EA6B66;noEdgeStyle=1;orthogonal=1;" edge="1" parent="1" source="43" target="42"><mxGeometry relative="1" as="geometry"><Array as="points"><mxPoint x="62" y="2125"/><mxPoint x="232" y="2071.875"/></Array></mxGeometry></mxCell><mxCell id="PrivateNetworkAcl|OutboundNACLEntryPrivate" value="NetworkAclId" style="edgeStyle=orthogonalEdgeStyle;rounded=1;orthogonalLoop=1;jettySize=auto;html=1;labelBackgroundColor=none;fontColor=#EA6B66;noEdgeStyle=1;orthogonal=1;" edge="1" parent="1" source="44" target="42"><mxGeometry relative="1" as="geometry"><Array as="points"><mxPoint x="62" y="2325"/><mxPoint x="232" y="2078.125"/></Array></mxGeometry></mxCell><mxCell id="VPC|SubnetPrivateDBA" value="VpcId" style="edgeStyle=orthogonalEdgeStyle;rounded=1;orthogonalLoop=1;jettySize=auto;html=1;labelBackgroundColor=none;fontColor=#EA6B66;noEdgeStyle=1;orthogonal=1;" edge="1" parent="1" source="45" target="2"><mxGeometry relative="1" as="geometry"><Array as="points"><mxPoint x="312" y="2175"/><mxPoint x="400" y="1850"/><mxPoint x="650" y="1850"/><mxPoint x="734" y="1543.0555555555563"/></Array></mxGeometry></mxCell><mxCell id="PrivateNetworkAcl|SubnetPrivateDBANACLAssociation" value="NetworkAclId" style="edgeStyle=orthogonalEdgeStyle;rounded=1;orthogonalLoop=1;jettySize=auto;html=1;labelBackgroundColor=none;fontColor=#EA6B66;noEdgeStyle=1;orthogonal=1;" edge="1" parent="1" source="46" target="42"><mxGeometry relative="1" as="geometry"><Array as="points"><mxPoint x="62" y="2515"/><mxPoint x="234" y="2084.375"/></Array></mxGeometry></mxCell><mxCell id="SubnetPrivateDBA|SubnetPrivateDBANACLAssociation" value="SubnetId" style="edgeStyle=orthogonalEdgeStyle;rounded=1;orthogonalLoop=1;jettySize=auto;html=1;labelBackgroundColor=none;fontColor=#EA6B66;noEdgeStyle=1;orthogonal=1;" edge="1" parent="1" source="46" target="45"><mxGeometry relative="1" as="geometry"><Array as="points"><mxPoint x="62" y="2535"/><mxPoint x="238" y="2185"/></Array></mxGeometry></mxCell><mxCell id="PrivateARouteTable|SubnetPrivateDBARouteTable" value="RouteTableId" style="edgeStyle=orthogonalEdgeStyle;rounded=1;orthogonalLoop=1;jettySize=auto;html=1;labelBackgroundColor=none;fontColor=#EA6B66;noEdgeStyle=1;orthogonal=1;" edge="1" parent="1" source="47" target="25"><mxGeometry relative="1" as="geometry"><Array as="points"><mxPoint x="62" y="2015"/><mxPoint x="238" y="1488.3333333333333"/></Array></mxGeometry></mxCell><mxCell id="SubnetPrivateDBA|SubnetPrivateDBARouteTable" value="SubnetId" style="edgeStyle=orthogonalEdgeStyle;rounded=1;orthogonalLoop=1;jettySize=auto;html=1;labelBackgroundColor=none;fontColor=#EA6B66;noEdgeStyle=1;orthogonal=1;" edge="1" parent="1" source="47" target="45"><mxGeometry relative="1" as="geometry"><Array as="points"><mxPoint x="62" y="2035"/><mxPoint x="238" y="2165"/></Array></mxGeometry></mxCell><mxCell id="VPC|SubnetPrivateDBB" value="VpcId" style="edgeStyle=orthogonalEdgeStyle;rounded=1;orthogonalLoop=1;jettySize=auto;html=1;labelBackgroundColor=none;fontColor=#EA6B66;noEdgeStyle=1;orthogonal=1;" edge="1" parent="1" source="48" target="2"><mxGeometry relative="1" as="geometry"><Array as="points"><mxPoint x="312" y="2275"/><mxPoint x="400" y="1900"/><mxPoint x="650" y="1900"/><mxPoint x="736" y="1545.8333333333342"/></Array></mxGeometry></mxCell><mxCell id="PrivateNetworkAcl|SubnetPrivateDBBNACLAssociation" value="NetworkAclId" style="edgeStyle=orthogonalEdgeStyle;rounded=1;orthogonalLoop=1;jettySize=auto;html=1;labelBackgroundColor=none;fontColor=#EA6B66;noEdgeStyle=1;orthogonal=1;" edge="1" parent="1" source="49" target="42"><mxGeometry relative="1" as="geometry"><Array as="points"><mxPoint x="62" y="2615"/><mxPoint x="236" y="2090.625"/></Array></mxGeometry></mxCell><mxCell id="SubnetPrivateDBB|SubnetPrivateDBBNACLAssociation" value="SubnetId" style="edgeStyle=orthogonalEdgeStyle;rounded=1;orthogonalLoop=1;jettySize=auto;html=1;labelBackgroundColor=none;fontColor=#EA6B66;noEdgeStyle=1;orthogonal=1;" edge="1" parent="1" source="49" target="48"><mxGeometry relative="1" as="geometry"><Array as="points"><mxPoint x="62" y="2635"/><mxPoint x="238" y="2285"/></Array></mxGeometry></mxCell><mxCell id="PrivateBRouteTable|SubnetPrivateDBBRouteTable" value="RouteTableId" style="edgeStyle=orthogonalEdgeStyle;rounded=1;orthogonalLoop=1;jettySize=auto;html=1;labelBackgroundColor=none;fontColor=#EA6B66;noEdgeStyle=1;orthogonal=1;" edge="1" parent="1" source="50" target="28"><mxGeometry relative="1" as="geometry"><Array as="points"><mxPoint x="62" y="2215"/><mxPoint x="238" y="1688.3333333333333"/></Array></mxGeometry></mxCell><mxCell id="SubnetPrivateDBB|SubnetPrivateDBBRouteTable" value="SubnetId" style="edgeStyle=orthogonalEdgeStyle;rounded=1;orthogonalLoop=1;jettySize=auto;html=1;labelBackgroundColor=none;fontColor=#EA6B66;noEdgeStyle=1;orthogonal=1;" edge="1" parent="1" source="50" target="48"><mxGeometry relative="1" as="geometry"><Array as="points"><mxPoint x="62" y="2235"/><mxPoint x="238" y="2265"/></Array></mxGeometry></mxCell><mxCell id="VPC|SubnetPrivateDBC" value="VpcId" style="edgeStyle=orthogonalEdgeStyle;rounded=1;orthogonalLoop=1;jettySize=auto;html=1;labelBackgroundColor=none;fontColor=#EA6B66;noEdgeStyle=1;orthogonal=1;" edge="1" parent="1" source="51" target="2"><mxGeometry relative="1" as="geometry"><Array as="points"><mxPoint x="312" y="2375"/><mxPoint x="400" y="1950"/><mxPoint x="650" y="1950"/><mxPoint x="738" y="1548.611111111112"/></Array></mxGeometry></mxCell><mxCell id="PrivateNetworkAcl|SubnetPrivateDBCNACLAssociation" value="NetworkAclId" style="edgeStyle=orthogonalEdgeStyle;rounded=1;orthogonalLoop=1;jettySize=auto;html=1;labelBackgroundColor=none;fontColor=#EA6B66;noEdgeStyle=1;orthogonal=1;" edge="1" parent="1" source="52" target="42"><mxGeometry relative="1" as="geometry"><Array as="points"><mxPoint x="62" y="2715"/><mxPoint x="238" y="2096.875"/></Array></mxGeometry></mxCell><mxCell id="SubnetPrivateDBC|SubnetPrivateDBCNACLAssociation" value="SubnetId" style="edgeStyle=orthogonalEdgeStyle;rounded=1;orthogonalLoop=1;jettySize=auto;html=1;labelBackgroundColor=none;fontColor=#EA6B66;noEdgeStyle=1;orthogonal=1;" edge="1" parent="1" source="52" target="51"><mxGeometry relative="1" as="geometry"><Array as="points"><mxPoint x="62" y="2735"/><mxPoint x="238" y="2385"/></Array></mxGeometry></mxCell><mxCell id="PrivateCRouteTable|SubnetPrivateDBCRouteTable" value="RouteTableId" style="edgeStyle=orthogonalEdgeStyle;rounded=1;orthogonalLoop=1;jettySize=auto;html=1;labelBackgroundColor=none;fontColor=#EA6B66;noEdgeStyle=1;orthogonal=1;" edge="1" parent="1" source="53" target="31"><mxGeometry relative="1" as="geometry"><Array as="points"><mxPoint x="62" y="2415"/><mxPoint x="238" y="1888.3333333333333"/></Array></mxGeometry></mxCell><mxCell id="SubnetPrivateDBC|SubnetPrivateDBCRouteTable" value="SubnetId" style="edgeStyle=orthogonalEdgeStyle;rounded=1;orthogonalLoop=1;jettySize=auto;html=1;labelBackgroundColor=none;fontColor=#EA6B66;noEdgeStyle=1;orthogonal=1;" edge="1" parent="1" source="53" target="51"><mxGeometry relative="1" as="geometry"><Array as="points"><mxPoint x="62" y="2435"/><mxPoint x="238" y="2365"/></Array></mxGeometry></mxCell></root></mxGraphModel>
            </diagram>
          </mxfile>